Gangsters,Guns And Zombies 2012 DVDRip XViD UNiQUE


[[.........why be the same as everyone else when YOU can be UNiQUE.........]]             


Format                                   : AVI
Format/Info                              : Audio Video Interleave
File size                                : 1.35 GiB
Duration                                 : 1h 28mn
Overall bit rate                         : 2 179 Kbps
Writing library                          : VirtualDub build 32842/release

Video
ID                                       : 0
Format                                   : MPEG-4 Visual
Format profile                           : Advanced Simple@L5
Format settings, BVOP                    : 2
Format settings, QPel                    : No
Format settings, GMC                     : No warppoints
Format settings, Matrix                  : Default (H.263)
Muxing mode                              : Packed bitstream
Codec ID                                 : XVID
Codec ID/Hint                            : XviD
Duration                                 : 1h 28mn
Bit rate                                 : 1 721 Kbps
Width                                    : 720 pixels
Height                                   : 304 pixels
Display aspect ratio                     : 2.35:1
Frame rate                               : 25.000 fps
Color space                              : YUV
Chroma subsampling                       : 4:2:0
Bit depth                                : 8 bits
Scan type                                : Progressive
Compression mode                         : Lossy
Bits/(Pixel*Frame)                       : 0.315
Stream size                              : 1.06 GiB (79%)
Writing library                          : XviD 64

Audio
ID                                       : 1
Format                                   : AC-3
Format/Info                              : Audio Coding 3
Mode extension                           : CM (complete main)
Format settings, Endianness              : Big
Codec ID                                 : 2000
Duration                                 : 1h 28mn
Bit rate mode                            : Constant
Bit rate                                 : 448 Kbps
Channel(s)                               : 6 channels
Channel positions                        : Front: L C R, Side: L R, LFE
Sampling rate                            : 48.0 KHz
Bit depth                                : 16 bits
Compression mode                         : Lossy
Stream size                              : 283 MiB (21%)
Alignment                                : Aligned on interleaves
Interleave, duration                     : 40 ms (1.00 video frame)
Interleave, preload duration             : 512 ms

 
http://www.imdb.com/title/tt2151633/

The whole "zombie thing" has been hyped up so much that everyone thinks it is 
the end of the world! Of course, where one man sees the dead rising from the 
grave, another sees opportunity. Q had a plan: drive the robbery getaway van, deliver everyone to the safe house and get paid - a nice, simple, plan. 


Source Used


Gangsters Guns and Zombies (2012) PAL DVDR DD5.1 ... Thanks


Poster:

 
http://i.imgur.com/64KaY.jpg


Screenshots:

 
http://i.imgur.com/Espng.jpg


ENJOY!